HIERARCHY
ROOT Hips
{
	OFFSET 0.000000 0.000000 0.000000
	CHANNELS 6 Xposition Yposition Zposition Zrotation Yrotation Xrotation 
	JOINT LHipJoint
	{
		OFFSET 0.000000 0.000000 0.000000
		CHANNELS 3 Zrotation Yrotation Xrotation
		JOINT LeftUpLeg
		{
			OFFSET 1.363060 -1.794630 0.839290
			CHANNELS 3 Zrotation Yrotation Xrotation
			JOINT LeftLeg
			{
				OFFSET 2.448110 -6.726130 0.000000
				CHANNELS 3 Zrotation Yrotation Xrotation
				JOINT LeftFoot
				{
					OFFSET 2.562200 -7.039590 0.000000
					CHANNELS 3 Zrotation Yrotation Xrotation
					JOINT LeftToeBase
					{
						OFFSET 0.157640 -0.433110 2.322550
						CHANNELS 3 Zrotation Yrotation Xrotation
						End Site
						{
							OFFSET 0.000000 0.000000 0.000000
						}
					}
				}
			}
		}
	}
	JOINT RHipJoint
	{
		OFFSET 0.000000 0.000000 0.000000
		CHANNELS 3 Zrotation Yrotation Xrotation
		JOINT RightUpLeg
		{
			OFFSET -1.305520 -1.794630 0.839290
			CHANNELS 3 Zrotation Yrotation Xrotation
			JOINT RightLeg
			{
				OFFSET -2.542530 -6.985550 0.000000
				CHANNELS 3 Zrotation Yrotation Xrotation
				JOINT RightFoot
				{
					OFFSET -2.568260 -7.056230 0.000000
					CHANNELS 3 Zrotation Yrotation Xrotation
					JOINT RightToeBase
					{
						OFFSET -0.164730 -0.452590 2.363150
						CHANNELS 3 Zrotation Yrotation Xrotation
						End Site
						{
							OFFSET 0.000000 0.000000 0.000000
						}
					}
				}
			}
		}
	}
	JOINT LowerBack
	{
		OFFSET 0.000000 0.000000 0.000000
		CHANNELS 3 Zrotation Yrotation Xrotation
		JOINT Spine
		{
			OFFSET 0.028270 2.035590 -0.193380
			CHANNELS 3 Zrotation Yrotation Xrotation
			JOINT Spine1
			{
				OFFSET 0.056720 2.048850 -0.042750
				CHANNELS 3 Zrotation Yrotation Xrotation
				JOINT Neck
				{
					OFFSET 0.000000 0.000000 0.000000
					CHANNELS 3 Zrotation Yrotation Xrotation
					JOINT Neck1
					{
						OFFSET -0.054170 1.746240 0.172020
						CHANNELS 3 Zrotation Yrotation Xrotation
						JOINT Head
						{
							OFFSET 0.104070 1.761360 -0.123970
							CHANNELS 3 Zrotation Yrotation Xrotation
							End Site
							{
								OFFSET 0.000000 0.000000 0.000000
							}
						}
					}
				}
				JOINT LeftShoulder
				{
					OFFSET 0.000000 0.000000 0.000000
					CHANNELS 3 Zrotation Yrotation Xrotation
					JOINT LeftArm
					{
						OFFSET 3.362410 1.200890 -0.311210
						CHANNELS 3 Zrotation Yrotation Xrotation
						JOINT LeftForeArm
						{
							OFFSET 4.983000 -0.000000 -0.000000
							CHANNELS 3 Zrotation Yrotation Xrotation
							JOINT LeftHand
							{
								OFFSET 3.483560 -0.000000 -0.000000
								CHANNELS 3 Zrotation Yrotation Xrotation
								JOINT LeftFingerBase
								{
									OFFSET 0.000000 0.000000 0.000000
									CHANNELS 3 Zrotation Yrotation Xrotation
									JOINT LeftHandIndex1
									{
										OFFSET 0.715260 -0.000000 -0.000000
										CHANNELS 3 Zrotation Yrotation Xrotation
										End Site
										{
											OFFSET 0.000000 0.000000 0.000000
										}
									}
								}
								JOINT LThumb
								{
									OFFSET 0.000000 0.000000 0.000000
									CHANNELS 3 Zrotation Yrotation Xrotation
									End Site
									{
										OFFSET 0.000000 0.000000 0.000000
									}
								}
							}
						}
					}
				}
				JOINT RightShoulder
				{
					OFFSET 0.000000 0.000000 0.000000
					CHANNELS 3 Zrotation Yrotation Xrotation
					JOINT RightArm
					{
						OFFSET -3.136600 1.374050 -0.404650
						CHANNELS 3 Zrotation Yrotation Xrotation
						JOINT RightForeArm
						{
							OFFSET -5.241900 -0.000000 -0.000000
							CHANNELS 3 Zrotation Yrotation Xrotation
							JOINT RightHand
							{
								OFFSET -3.444170 -0.000000 -0.000000
								CHANNELS 3 Zrotation Yrotation Xrotation
								JOINT RightFingerBase
								{
									OFFSET 0.000000 0.000000 0.000000
									CHANNELS 3 Zrotation Yrotation Xrotation
									JOINT RightHandIndex1
									{
										OFFSET -0.622530 -0.000000 -0.000000
										CHANNELS 3 Zrotation Yrotation Xrotation
										End Site
										{
											OFFSET 0.000000 0.000000 0.000000
										}
									}
								}
								JOINT RThumb
								{
									OFFSET 0.000000 0.000000 0.000000
									CHANNELS 3 Zrotation Yrotation Xrotation
									End Site
									{
										OFFSET 0.000000 0.000000 0.000000
									}
								}
							}
						}
					}
				}
			}
		}
	}
}
MOTION
Frames: 5
Frame Time: 0.016667
-0.049243 17.294779 -0.049243 -4.776327 0.995662 14.661717 -5.096592 4.893211 5.000011 22.290631 -41.455697 -35.035868 38.851597 -57.869544 -16.975680 -41.605504 -36.473131 53.126910 0.000000 0.000000 0.000000 8.599587 -23.076781 -5.006746 29.468413 21.574738 -23.869901 -21.091817 -4.724193 47.492879 3.144406 -2.397179 -8.948595 0.000000 0.000000 0.000000 -6.844622 10.800286 16.124055 2.337924 11.920757 -0.149969 0.366348 8.182733 -39.625355 9.986799 -5.144693 -3.014752 1.997891 -0.119598 4.934794 0.000000 0.000000 0.000000 3.032432 -1.658195 -3.653375 -67.364007 -34.768893 28.868062 9.252143 -76.307058 2.941191 -33.080283 13.241990 2.015468 -32.858293 13.790127 -0.000000 0.000000 0.000000 0.000000 0.000000 0.000000 0.000000 -8.766199 -15.209848 -33.871338 97.995605 72.767231 -9.790532 97.080084 -26.039883 167.488638 64.185774 -17.913537 -16.446908 68.969526 -4.677270 0.000000 0.000000 0.000000 0.000000 0.000000 0.000000 0.000000 
-0.081977 17.294856 0.066918 -2.626013 1.630060 15.436473 -7.773716 5.217341 6.079366 26.823586 -41.168422 -39.891988 35.993098 -61.071523 -15.156082 -37.064504 -40.328685 48.306574 0.000000 0.000000 0.000000 7.662663 -23.093906 -6.331424 28.444400 20.826774 -24.072390 -21.117091 -5.092840 48.041594 3.224536 -2.415056 -9.310565 0.000000 0.000000 0.000000 -1.823776 12.208603 15.622688 2.145813 12.433488 -1.190101 -9.020429 9.346732 -38.783358 6.523022 -1.300716 6.089747 2.991192 -0.174128 3.936574 0.000000 0.000000 0.000000 2.411330 -4.589411 8.192497 -75.983514 -44.716679 12.758020 30.385207 -74.993996 -10.226437 -58.119724 21.820197 -6.411396 -60.996284 18.571197 -0.000000 0.000000 0.000000 0.000000 0.000000 0.000000 0.000000 -12.979114 -14.632374 -44.901288 69.170447 56.408369 35.192459 119.694229 -86.498059 178.467546 11.823029 -0.338042 -0.772188 11.898553 -0.261746 -0.000000 0.000000 0.000000 0.000000 0.000000 0.000000 0.000000 
-0.112308 17.296751 0.182335 -3.124359 -2.167705 15.016204 -8.883928 8.248082 8.722569 31.779316 -38.816965 -44.366002 32.523061 -63.164815 -13.104704 -33.193442 -43.032666 44.241782 0.000000 0.000000 0.000000 8.379621 -20.317546 -6.850979 27.807735 20.594506 -22.739010 -21.334427 -4.858327 48.502918 3.335227 -2.337917 -9.403999 0.000000 0.000000 0.000000 -1.446623 4.350229 13.050376 1.052800 3.991016 -1.854302 -3.490824 5.611720 -24.622791 3.258034 -0.175705 5.207568 5.289138 0.134470 1.897126 0.000000 0.000000 0.000000 6.215806 16.770647 7.932128 -75.404863 -33.903502 -0.658500 -162.725842 -88.895607 163.505387 -56.525625 47.991632 -13.894852 -71.606830 34.663613 -0.000000 0.000000 0.000000 0.000000 0.000000 0.000000 0.000000 -10.501261 -25.723739 -18.233215 91.839265 22.161417 33.945650 50.053086 -75.179050 0.518916 -1.694428 1.544814 0.260817 -1.716656 1.538732 0.000000 0.000000 0.000000 0.000000 0.000000 0.000000 0.000000 
-0.121092 17.313797 0.315990 -3.487458 -2.988898 15.975747 -9.560736 5.214168 9.986845 31.260255 -37.376074 -41.380228 39.790135 -59.321657 -16.278575 -34.893573 -42.068702 44.503435 0.000000 0.000000 0.000000 9.588941 -18.614086 -7.233999 26.588506 21.915060 -24.111164 -21.943114 -4.943663 51.038006 4.226982 -4.579927 -6.997586 0.000000 0.000000 0.000000 -1.813241 4.818962 12.197697 1.012928 4.477945 -1.895681 -3.479429 6.076635 -25.192756 3.604737 -0.284455 5.730374 5.362989 0.127382 1.932271 0.000000 0.000000 0.000000 6.356152 16.542340 5.862215 -75.435556 -36.278575 0.488357 21.159545 -87.664888 -16.132366 -58.954496 42.042474 -12.881683 -70.988947 30.836444 -0.000000 0.000000 0.000000 0.000000 0.000000 0.000000 0.000000 -10.834480 -24.917967 -17.920641 91.944731 21.000036 35.661935 51.756449 -75.202297 0.602074 -1.599635 1.163572 0.303289 -1.630845 1.153826 0.000000 0.000000 0.000000 0.000000 0.000000 0.000000 0.000000 
-0.128024 17.331892 0.448313 -3.902495 -3.672615 16.748032 -10.393830 2.535448 11.073535 30.070549 -35.566845 -38.303898 45.577036 -55.928527 -18.544640 -37.223617 -40.670041 46.150127 0.000000 0.000000 0.000000 10.750295 -17.013651 -7.454085 25.305712 23.112120 -25.403506 -22.378693 -5.085932 53.393064 5.201603 -6.979963 -4.548756 0.000000 0.000000 0.000000 -1.936548 5.149611 11.552666 1.024730 4.918317 -1.966662 -3.774605 6.444519 -25.915865 3.915382 -0.382871 6.417391 5.395194 0.119054 1.976253 0.000000 0.000000 0.000000 6.490408 16.093578 3.710902 -74.947470 -38.511372 2.324553 25.147488 -83.573755 -15.076514 -60.417818 35.511367 -11.285609 -69.155646 26.875509 -0.000000 0.000000 0.000000 0.000000 0.000000 0.000000 0.000000 -11.456696 -24.206229 -17.744666 92.019369 19.481766 36.745219 53.642879 -74.088602 0.671339 -1.506313 0.860037 0.339154 -1.546028 0.847078 -0.000000 0.000000 0.000000 0.000000 0.000000 0.000000 0.000000 
